<svg xmlns="http://www.w3.org/2000/svg" fill="none" viewBox="0 0 256 256"><g clip-path="url(#a)"><path fill="#0a0301" d="M216 0H40C17.909 0 0 17.909 0 40v176c0 22.091 17.909 40 40 40h176c22.091 0 40-17.909 40-40V40c0-22.091-17.909-40-40-40"/><path fill="#fff" stroke="#4aa3ff" stroke-width="4" d="M128 248c66.274 0 120-53.726 120-120S194.274 8 128 8 8 61.726 8 128s53.726 120 120 120Z"/><path fill="#3b6fc4" d="M70 184.5c30.376 0 55-24.624 55-55s-24.624-55-55-55-55 24.624-55 55 24.624 55 55 55"/><path fill="#3b6fc4" d="M125 177c38.66 0 70-31.34 70-70s-31.34-70-70-70-70 31.34-70 70 31.34 70 70 70"/><path fill="#3b6fc4" d="M187.5 184.5c28.995 0 52.5-23.505 52.5-52.5s-23.505-52.5-52.5-52.5S135 103.005 135 132s23.505 52.5 52.5 52.5"/><path fill="#3b6fc4" d="M198.75 132H56.25C38.991 132 25 145.991 25 163.25s13.991 31.25 31.25 31.25h142.5c17.259 0 31.25-13.991 31.25-31.25S216.009 132 198.75 132"/><g stroke="#4aa3ff" stroke-width="4" opacity=".6"><path d="m40 40 176 176M216 40 40 216M128 24v208M24 128h208"/></g><path fill="#ffd23f" stroke="#ffb000" stroke-linejoin="round" stroke-width="4" d="M117.811 67 83 157.754h34.811L95.432 240 175 135.066h-37.297L160.081 67z"/></g><defs><clipPath id="a"><path fill="#fff" d="M0 0h256v256H0z"/></clipPath></defs></svg>